<svg viewBox="0 0 310.35 310.35" xmlns="http://www.w3.org/2000/svg" xmlns:xlink="http://www.w3.org/1999/xlink"><linearGradient id="a" gradientUnits="userSpaceOnUse" x1="155.17" x2="155.17" y2="310.35"><stop offset="0" stop-color="#71deff"/><stop offset="1" stop-color="#b15dff"/></linearGradient><rect fill="url(#a)" height="310.35" rx="54.45" width="310.35"/><g fill="none" stroke="#fff" stroke-miterlimit="10" stroke-width="13"><path d="m217.47 83.9s-17.38-6.31-44.6-11.76-32.67 19.06-51.73 30-29.94 8.16-29.94 8.16"/><path d="m105.15 191.24s-1.7-6.12 1-14.29-10.89-16.33-10.89-16.33"/><path d="m144.22 194.34.06-22.83v-10.89"/><path d="m189 193s-1.2-10.62-1.2-21.51 13.61-10.89 13.61-10.89"/><path d="m132 91.2s-27.19-19.06-49-19.06-43.53 19.06-43.53 43.56 35.39 59.89 35.39 70.78v1.36c-.58 11.64-7.91 37.07-2.68 44.92 5.45 8.17 155.17 8.17 163.34 0 7.94-7.94-4.69-23.58-.41-44.45.12-.6.26-1.22.41-1.83 5.45-21.78 39.18-49.68 35.39-76.22-5.1-35.73-26.16-38.5-44.56-30.9-11 4.57-21.11 12.86-26.22 20-12.76 17.86-46.28 8.16-46.28 8.16"/><path d="m74.83 187.84s51.76 6.81 81.7 6.81 78.54-6.34 78.54-6.34"/></g></svg>