<svg height="700pt" preserveAspectRatio="xMidYMid meet" viewBox="0 0 700 700" width="700pt" xmlns="http://www.w3.org/2000/svg"><path d="m1109 6996c-2-2-27-6-56-10-117-14-255-56-372-115-66-33-127-67-144-81-7-5-39-30-72-56-185-145-332-358-406-587-61-191-57-34-57-2652 0-2283 0-2404 18-2487 55-260 158-460 328-634 142-145 313-252 502-313 194-63 27-59 2670-57 1328 1 2430 5 2448 9 339 70 598 228 791 484 78 104 166 287 204 428l32 120v2440c0 2320-1 2444-18 2524-63 290-203 526-422 712-151 127-386 232-590 263-74 12-504 14-2471 15-1309 0-2383-1-2385-3z" transform="matrix(.1 0 0 -.1 0 700)"/></svg>