<svg viewBox="0 0 244.7 180.52" xmlns="http://www.w3.org/2000/svg"><g fill="none" stroke="#fff" stroke-miterlimit="10" stroke-width="13"><g stroke-linecap="round"><path d="m184.5 19s-17.38-6.32-44.6-11.76-32.67 19.1-51.73 29.98-29.94 8.17-29.94 8.17"/><path d="m72.18 126.38s-1.7-6.12 1-14.29-10.87-16.34-10.87-16.34"/><path d="m111.25 129.48.06-22.84v-10.89"/><path d="m156.07 128.15s-1.2-10.62-1.2-21.51 13.61-10.89 13.61-10.89"/><path d="m99.06 26.33s-27.22-19.06-49-19.06-43.56 19.06-43.56 43.56 35.39 59.89 35.39 70.78v1.36c-.58 11.64-7.91 37.07-2.68 44.92 5.45 8.17 155.17 8.17 163.34 0 7.94-7.94-4.69-23.58-.41-44.45.12-.6.26-1.22.41-1.83 5.45-21.78 39.14-49.68 35.35-76.22-5.1-35.73-26.16-38.5-44.56-30.9-11 4.57-21.11 12.86-26.22 20-12.76 17.86-46.28 8.16-46.28 8.16"/></g><path d="m41.86 123s51.76 6.81 81.7 6.81 78.54-6.34 78.54-6.34"/></g></svg>