<svg xmlns="http://www.w3.org/2000/svg" xmlns:xlink="http://www.w3.org/1999/xlink" viewBox="0 0 310.35 310.35"><defs><style>.cls-1{fill:url(#Unbenannter_Verlauf_6);}.cls-2,.cls-3{fill:none;stroke:#fff;stroke-miterlimit:10;stroke-width:13px;}.cls-2{stroke-linecap:round;}</style><linearGradient id="Unbenannter_Verlauf_6" x1="155.17" x2="155.17" y2="310.35" gradientUnits="userSpaceOnUse"><stop offset="0" stop-color="#71deff"/><stop offset="1" stop-color="#b15dff"/></linearGradient></defs><title>Element 3</title><g id="Ebene_2" data-name="Ebene 2"><g id="Ebene_1-2" data-name="Ebene 1"><rect class="cls-1" width="310.35" height="310.35" rx="54.45" ry="54.45"/><path class="cls-2" d="M217.47,83.9s-17.38-6.31-44.6-11.76-32.67,19.06-51.73,30-29.94,8.16-29.94,8.16"/><path class="cls-2" d="M105.15,191.24s-1.7-6.12,1-14.29-10.89-16.33-10.89-16.33"/><polyline class="cls-2" points="144.22 194.34 144.28 171.51 144.28 160.62"/><path class="cls-2" d="M189,193s-1.2-10.62-1.2-21.51,13.61-10.89,13.61-10.89"/><path class="cls-2" d="M132,91.2S104.81,72.14,83,72.14,39.47,91.2,39.47,115.7s35.39,59.89,35.39,70.78c0,.43,0,.88,0,1.36-.58,11.64-7.91,37.07-2.68,44.92,5.45,8.17,155.17,8.17,163.34,0,7.94-7.94-4.69-23.58-.41-44.45.12-.6.26-1.22.41-1.83,5.45-21.78,39.18-49.68,35.39-76.22-5.1-35.73-26.16-38.5-44.56-30.9-11,4.57-21.11,12.86-26.22,20-12.76,17.86-46.28,8.16-46.28,8.16"/><path class="cls-3" d="M74.83,187.84s51.76,6.81,81.7,6.81,78.54-6.34,78.54-6.34"/></g></g></svg>