<svg xmlns="http://www.w3.org/2000/svg" viewBox="0 0 244.7 180.52"><defs><style>.cls-1,.cls-2{fill:none;stroke:#fff;stroke-miterlimit:10;stroke-width:13px;}.cls-1{stroke-linecap:round;}</style></defs><title>Element 2</title><g id="Ebene_2" data-name="Ebene 2"><g id="Ebene_1-2" data-name="Ebene 1"><path class="cls-1" d="M184.5,19s-17.38-6.32-44.6-11.76S107.23,26.34,88.17,37.22s-29.94,8.17-29.94,8.17"/><path class="cls-1" d="M72.18,126.38s-1.7-6.12,1-14.29S62.31,95.75,62.31,95.75"/><polyline class="cls-1" points="111.25 129.48 111.31 106.64 111.31 95.75"/><path class="cls-1" d="M156.07,128.15s-1.2-10.62-1.2-21.51,13.61-10.89,13.61-10.89"/><path class="cls-1" d="M99.06,26.33S71.84,7.27,50.06,7.27,6.5,26.33,6.5,50.83s35.39,59.89,35.39,70.78c0,.43,0,.88,0,1.36-.58,11.64-7.91,37.07-2.68,44.92,5.45,8.17,155.17,8.17,163.34,0,7.94-7.94-4.69-23.58-.41-44.45.12-.6.26-1.22.41-1.83C208,99.83,241.69,71.93,237.9,45.39c-5.1-35.73-26.16-38.5-44.56-30.9-11,4.57-21.11,12.86-26.22,20-12.76,17.86-46.28,8.16-46.28,8.16"/><path class="cls-2" d="M41.86,123s51.76,6.81,81.7,6.81,78.54-6.34,78.54-6.34"/></g></g></svg>